<svg xmlns="http://www.w3.org/2000/svg" xmlns:xlink="http://www.w3.org/1999/xlink" width="260" height="37" viewBox="0 0 260 37"><defs><clipPath id="a"><path d="M137.52,149h38.864v30H137.52Zm0,0"/></clipPath><clipPath id="b"><path d="M175.571,169.671h-6.381l-1.487,1.5h7.08a6.866,6.866,0,0,1-6.693,6.357h-7.765l6.322-6.357,1.487-1.5,1.458-1.467a8.607,8.607,0,0,0,.015-12.146.733.733,0,0,0-1.056,0c-.169.171-5.888,5.923-5.532,5.564-.061-.3-.136-.583-.208-.866a34.918,34.918,0,0,0-5.3-11.31.756.756,0,0,0-1.192,0,35.019,35.019,0,0,0-5.3,11.31l-.014.015c0,.026-.214.946-.222.971a17.52,17.52,0,0,0,1,10.876,18.454,18.454,0,0,0,1.161,2.23l-1.814-1.84-5.847-5.866a7.095,7.095,0,0,1-.49-9.468l5.058,5.086a17.491,17.491,0,0,1,.356-1.764l-4.924-4.939a.733.733,0,0,0-1.056,0,8.629,8.629,0,0,0,0,12.146l1.458,1.467,1.487,1.5,6.337,6.357h-7.765a6.866,6.866,0,0,1-6.694-6.357h7.08l-1.487-1.5h-6.381a.748.748,0,0,0-.744.748,8.429,8.429,0,0,0,8.226,8.6h22.343a8.431,8.431,0,0,0,8.228-8.6A.752.752,0,0,0,175.571,169.671Zm-23.31-7.645a33.546,33.546,0,0,1,4.656-10.814,33.442,33.442,0,0,1,4.655,10.8c.059.3.12.6.164.9-.168.169-5.135,5.149-4.82,4.834l-4.166-4.19-.654-.644C152.141,162.611,152.2,162.311,152.261,162.026Zm-.415,3.8v-.015c0-.344.015-.674.044-1.018l.714.72,3.794,3.815a.715.715,0,0,0,1.041,0l11.6-11.654a7.1,7.1,0,0,1-.492,9.469l-5.846,5.864-1.816,1.84a17.339,17.339,0,0,0,2.589-9.022,11.593,11.593,0,0,0-.076-1.45l-1.414,1.435a15.649,15.649,0,0,1-5.072,11.474A15.82,15.82,0,0,1,151.846,165.826Zm0,0" transform="translate(-137.52 -149.155)"/></clipPath></defs><text transform="translate(155 29)" font-size="30" font-family="Montserrat-SemiBold, Montserrat" font-weight="600"><tspan x="-104.655" y="0">ZEN GARDEN</tspan></text><g transform="translate(-137.52 -145)" clip-path="url(#a)"><g transform="translate(137.52 149.06)" clip-path="url(#b)"><path d="M137.52,148.906V178.87h38.8V148.906Zm0,0" transform="translate(-137.52 -149.003)"/></g></g></svg>