<svg xmlns="http://www.w3.org/2000/svg" width="647.282" height="618.166" viewBox="0 0 647.282 618.166"><g transform="translate(-92.685 0.001)"><path d="M575.4,659.853s10.411-17.081,23.777-6.982,38.12,27.139,38.12,27.139,5.07,10.9-8.052,6.805-55.96-10.682-55.96-10.682Z" transform="translate(-191 -140.917)" fill="#feb8b8"/><path d="M284.453,551.378c3.318-26.678,19.851-52.964,45.294-61.646a123.863,123.863,0,0,0,.006,85.04c3.91,10.575,9.359,21.93,5.682,32.589-2.288,6.632-7.886,11.706-14.142,14.878s-13.2,4.685-20.059,6.167l-1.35,1.116C289,604.942,281.135,578.056,284.453,551.378Z" transform="translate(-191 -140.917)" fill="#f0f0f0"/><path d="M330,490.237a105.87,105.87,0,0,0-26.319,59.583A45.591,45.591,0,0,0,304.2,564.1a26.148,26.148,0,0,0,6.5,12.128c2.931,3.221,6.3,6.175,8.4,10.052a16.011,16.011,0,0,1,.782,13.071c-1.852,5.311-5.5,9.64-9.218,13.749-4.126,4.563-8.484,9.236-10.238,15.285-.213.733-1.337.36-1.125-.371,3.052-10.524,13.268-16.5,18.14-25.981,2.273-4.423,3.228-9.558,1.1-14.227-1.864-4.083-5.338-7.133-8.334-10.368a27.9,27.9,0,0,1-6.8-11.622,42.149,42.149,0,0,1-1.065-14.2,102.711,102.711,0,0,1,7.5-31.214,107.747,107.747,0,0,1,19.374-31.048c.507-.567,1.287.325.784.889Z" transform="translate(-191 -140.917)" fill="#fff"/><path d="M304,542.65a15.884,15.884,0,0,1-12.091-16.639.593.593,0,0,1,1.184.059,14.708,14.708,0,0,0,11.278,15.455c.742.176.366,1.3-.371,1.125Z" transform="translate(-191 -140.917)" fill="#fff"/><path d="M309,574.786a30.615,30.615,0,0,0,13.671-17.632c.215-.732,1.34-.36,1.125.372a31.844,31.844,0,0,1-14.264,18.319c-.657.39-1.186-.671-.533-1.058Z" transform="translate(-191 -140.917)" fill="#fff"/><path d="M315.581,510.14a8.991,8.991,0,0,0,8.52-.432c.652-.4,1.18.663.533,1.058a10.075,10.075,0,0,1-9.425.5.612.612,0,0,1-.377-.748.6.6,0,0,1,.748-.377Z" transform="translate(-191 -140.917)" fill="#fff"/><path d="M407.3,537.383c-.4.26-.8.52-1.2.79a118.4,118.4,0,0,0-15.14,11.82c-.37.33-.74.67-1.1,1.01a124.827,124.827,0,0,0-27.11,37.11,121.215,121.215,0,0,0-6.64,17.18c-2.45,8.13-4.46,17.14-9.31,23.79a20.8,20.8,0,0,1-1.62,2h-43.83c-.1-.05-.2-.09-.3-.14l-1.75.08c.07-.31.15-.63.22-.94.04-.18.09-.36.13-.54.03-.12.06-.24.08-.35.01-.04.02-.08.03-.11.02-.11.05-.21.07-.31q.66-2.685,1.36-5.37c0-.01,0-.01.01-.02,3.59-13.63,8.35-27.08,15-39.38.2-.37.4-.75.62-1.12a115.674,115.674,0,0,1,10.39-15.76,102.255,102.255,0,0,1,6.81-7.79,85.035,85.035,0,0,1,21.28-15.94c15.72-8.3,33.92-11.48,50.72-6.41C406.451,537.113,406.871,537.243,407.3,537.383Z" transform="translate(-191 -140.917)" fill="#f0f0f0"/><path d="M407.2,537.939a105.87,105.87,0,0,0-56.888,31.728,45.591,45.591,0,0,0-8.181,11.71,26.149,26.149,0,0,0-2.109,13.6c.4,4.336,1.314,8.725.655,13.084a16.011,16.011,0,0,1-7.245,10.907c-4.676,3.126-10.2,4.385-15.638,5.428-6.042,1.159-12.335,2.267-17.377,6.04-.611.457-1.285-.517-.675-.974,8.773-6.566,20.529-5.188,30.126-9.823,4.478-2.163,8.332-5.688,9.441-10.7.97-4.382.033-8.909-.412-13.3a27.9,27.9,0,0,1,1.567-13.374,42.149,42.149,0,0,1,7.7-11.982,102.715,102.715,0,0,1,24.782-20.406,107.746,107.746,0,0,1,34.163-13.126c.746-.148.832,1.035.091,1.182Z" transform="translate(-191 -140.917)" fill="#fff"/><path d="M354.886,564.134a15.884,15.884,0,0,1,.364-20.565c.506-.57,1.416.189.91.76a14.708,14.708,0,0,0-.3,19.13c.486.587-.491,1.259-.974.675Z" transform="translate(-191 -140.917)" fill="#fff"/><path d="M339.532,592.8a30.614,30.614,0,0,0,21.531-5.847c.613-.455,1.286.519.675.974a31.844,31.844,0,0,1-22.418,6.039c-.759-.084-.543-1.25.212-1.166Z" transform="translate(-191 -140.917)" fill="#fff"/><path d="M383.706,545.15a8.991,8.991,0,0,0,7.064,4.785c.76.075.543,1.24-.212,1.166a10.075,10.075,0,0,1-7.826-5.276.612.612,0,0,1,.15-.824.6.6,0,0,1,.824.15Z" transform="translate(-191 -140.917)" fill="#fff"/><path d="M637.945,728.193c1.286-10.339,7.693-20.526,17.554-23.891a48,48,0,0,0,0,32.958c1.515,4.1,3.627,8.5,2.2,12.63a10.731,10.731,0,0,1-5.481,5.766,31.867,31.867,0,0,1-7.774,2.39l-.523.433C639.707,748.952,636.66,738.532,637.945,728.193Z" transform="translate(-191 -140.917)" fill="#f0f0f0"/><path d="M655.6,704.5a41.03,41.03,0,0,0-10.2,23.092,17.67,17.67,0,0,0,.2,5.532,10.133,10.133,0,0,0,2.52,4.7,20.98,20.98,0,0,1,3.255,3.9,6.205,6.205,0,0,1,.3,5.066,16.123,16.123,0,0,1-3.572,5.329c-1.6,1.768-3.288,3.58-3.968,5.924-.082.284-.518.14-.436-.144,1.183-4.079,5.142-6.4,7.03-10.069a6.284,6.284,0,0,0,.425-5.514,16.274,16.274,0,0,0-3.23-4.018,10.814,10.814,0,0,1-2.636-4.5,16.335,16.335,0,0,1-.413-5.5,39.808,39.808,0,0,1,2.907-12.1,41.758,41.758,0,0,1,7.509-12.033c.2-.22.5.126.3.344Z" transform="translate(-191 -140.917)" fill="#fff"/><path d="M645.521,724.81a6.156,6.156,0,0,1-4.686-6.448c.023-.295.482-.272.459.023a5.7,5.7,0,0,0,4.371,5.99c.287.068.142.5-.144.436Z" transform="translate(-191 -140.917)" fill="#fff"/><path d="M647.459,737.265a11.865,11.865,0,0,0,5.3-6.833c.083-.284.519-.139.436.144a12.341,12.341,0,0,1-5.528,7.1c-.255.151-.46-.26-.207-.41Z" transform="translate(-191 -140.917)" fill="#fff"/><path d="M650.009,712.211a3.484,3.484,0,0,0,3.3-.168c.253-.154.457.257.207.41a3.9,3.9,0,0,1-3.653.193.237.237,0,0,1-.146-.29.231.231,0,0,1,.29-.146Z" transform="translate(-191 -140.917)" fill="#fff"/><path d="M685.555,722.769c-.155.1-.31.2-.465.306a45.9,45.9,0,0,0-5.867,4.581c-.143.128-.287.26-.426.391A48.379,48.379,0,0,0,668.29,742.43a46.985,46.985,0,0,0-2.573,6.658c-.95,3.151-1.728,6.643-3.608,9.22a8.045,8.045,0,0,1-.628.775H644.494c-.039-.019-.077-.035-.116-.054l-.678.031c.027-.12.058-.244.085-.364.016-.07.035-.14.05-.209.012-.047.023-.093.031-.136,0-.016.008-.031.012-.043.008-.043.019-.081.027-.12q.256-1.041.527-2.081l0-.008a69.074,69.074,0,0,1,5.813-15.262c.078-.143.155-.291.24-.434a44.827,44.827,0,0,1,4.027-6.108,39.628,39.628,0,0,1,2.639-3.019A32.956,32.956,0,0,1,665.4,725.1c6.092-3.217,13.146-4.449,19.657-2.484C685.226,722.664,685.389,722.715,685.555,722.769Z" transform="translate(-191 -140.917)" fill="#f0f0f0"/><path d="M685.517,722.985a41.03,41.03,0,0,0-22.047,12.3,17.67,17.67,0,0,0-3.17,4.538,10.133,10.133,0,0,0-.818,5.27,20.975,20.975,0,0,1,.254,5.071,6.205,6.205,0,0,1-2.808,4.227,16.12,16.12,0,0,1-6.06,2.1c-2.341.449-4.781.878-6.735,2.341-.237.177-.5-.2-.261-.378,3.4-2.545,7.956-2.011,11.675-3.807a6.284,6.284,0,0,0,3.659-4.146,16.273,16.273,0,0,0-.16-5.153,10.813,10.813,0,0,1,.607-5.183,16.334,16.334,0,0,1,2.984-4.643,39.806,39.806,0,0,1,9.6-7.908,41.758,41.758,0,0,1,13.24-5.087c.289-.057.323.4.035.458Z" transform="translate(-191 -140.917)" fill="#fff"/><path d="M665.242,733.137a6.156,6.156,0,0,1,.141-7.97c.2-.221.549.073.352.294a5.7,5.7,0,0,0-.116,7.414c.188.228-.19.488-.378.262Z" transform="translate(-191 -140.917)" fill="#fff"/><path d="M659.291,744.248a11.865,11.865,0,0,0,8.345-2.266c.237-.176.5.2.261.378a12.341,12.341,0,0,1-8.688,2.34c-.294-.033-.211-.484.082-.452Z" transform="translate(-191 -140.917)" fill="#fff"/><path d="M676.411,725.779a3.484,3.484,0,0,0,2.737,1.854c.294.029.211.481-.082.452a3.9,3.9,0,0,1-3.033-2.045.237.237,0,0,1,.058-.319.231.231,0,0,1,.319.058Z" transform="translate(-191 -140.917)" fill="#fff"/><path d="M929.788,508.573c-5.1-41.006-30.513-81.408-69.619-94.752a190.384,190.384,0,0,1-.01,130.711c-6.009,16.255-14.385,33.708-8.733,50.091,3.517,10.193,12.12,17.992,21.738,22.869s20.291,7.2,30.831,9.478l2.074,1.716C922.8,590.9,934.888,549.578,929.788,508.573Z" transform="translate(-191 -140.917)" fill="#f0f0f0"/><path d="M859.781,414.6a162.727,162.727,0,0,1,40.454,91.583c.711,7.293.8,14.753-.8,21.942a40.191,40.191,0,0,1-10,18.642c-4.506,4.95-9.687,9.492-12.911,15.451-3.4,6.281-3.529,13.418-1.2,20.09,2.846,8.163,8.456,14.817,14.168,21.134,6.342,7.013,13.041,14.2,15.736,23.494.327,1.127,2.055.554,1.729-.571-4.69-16.176-20.393-25.364-27.881-39.934-3.494-6.8-4.961-14.691-1.685-21.867,2.865-6.275,8.2-10.964,12.809-15.936,4.836-5.221,8.543-10.95,10.453-17.863,1.954-7.072,2.159-14.551,1.638-21.83a157.872,157.872,0,0,0-11.53-47.977,165.612,165.612,0,0,0-29.779-47.723c-.779-.872-1.979.5-1.205,1.366Z" transform="translate(-191 -140.917)" fill="#fff"/><path d="M899.744,495.157a24.414,24.414,0,0,0,18.584-25.575.911.911,0,0,0-1.819.091,22.607,22.607,0,0,1-17.336,23.755c-1.14.271-.563,2,.571,1.729Z" transform="translate(-191 -140.917)" fill="#fff"/><path d="M892.056,544.553a47.056,47.056,0,0,1-21.013-27.1c-.331-1.125-2.06-.553-1.729.571a48.946,48.946,0,0,0,21.924,28.157c1.01.6,1.823-1.031.819-1.627Z" transform="translate(-191 -140.917)" fill="#fff"/><path d="M881.943,445.189a13.82,13.82,0,0,1-13.1-.665c-1-.612-1.814,1.019-.819,1.627a15.486,15.486,0,0,0,14.486.768.941.941,0,0,0,.579-1.15.915.915,0,0,0-1.15-.579Z" transform="translate(-191 -140.917)" fill="#fff"/><path d="M740.966,487.061c.615.4,1.229.8,1.845,1.214a182,182,0,0,1,23.27,18.168c.569.507,1.138,1.03,1.691,1.552a191.864,191.864,0,0,1,41.669,57.04,186.322,186.322,0,0,1,10.206,26.407c3.766,12.5,6.855,26.345,14.31,36.566a31.978,31.978,0,0,0,2.49,3.074h67.369c.153-.077.307-.138.461-.215l2.69.123c-.108-.477-.23-.968-.339-1.445-.062-.277-.138-.553-.2-.83-.046-.184-.092-.369-.123-.538-.015-.061-.031-.123-.046-.169-.031-.169-.077-.323-.108-.477q-1.014-4.127-2.09-8.254c0-.015,0-.015-.015-.031-5.518-20.95-12.834-41.623-23.056-60.529-.308-.569-.615-1.153-.953-1.721a177.793,177.793,0,0,0-15.97-24.224A157.161,157.161,0,0,0,853.6,520.8a130.7,130.7,0,0,0-32.708-24.5c-24.163-12.758-52.137-17.645-77.959-9.852C742.272,486.646,741.626,486.846,740.966,487.061Z" transform="translate(-191 -140.917)" fill="#f0f0f0"/><path d="M741.117,487.916a162.727,162.727,0,0,1,87.439,48.768c4.958,5.4,9.519,11.3,12.574,18a40.192,40.192,0,0,1,3.242,20.9c-.617,6.665-2.02,13.411-1.006,20.11,1.069,7.061,5.261,12.838,11.136,16.765,7.188,4.8,15.673,6.74,24.036,8.344,9.286,1.781,18.96,3.484,26.71,9.285.939.7,1.975-.8,1.037-1.5-13.484-10.092-31.554-7.974-46.3-15.1-6.883-3.324-12.806-8.743-14.511-16.445-1.491-6.735-.05-13.693.633-20.436.717-7.08.228-13.887-2.409-20.557-2.7-6.823-7.037-12.918-11.836-18.416a157.871,157.871,0,0,0-38.091-31.365A165.611,165.611,0,0,0,741.257,486.1c-1.147-.227-1.279,1.59-.14,1.816Z" transform="translate(-191 -140.917)" fill="#fff"/><path d="M821.529,528.179a24.414,24.414,0,0,0-.56-31.609c-.777-.877-2.176.29-1.4,1.168a22.607,22.607,0,0,1,.46,29.4c-.747.9.754,1.935,1.5,1.037Z" transform="translate(-191 -140.917)" fill="#fff"/><path d="M845.13,572.248a47.057,47.057,0,0,1-33.095-8.987c-.941-.7-1.977.8-1.037,1.5a48.945,48.945,0,0,0,34.457,9.282C846.622,573.91,846.291,572.119,845.13,572.248Z" transform="translate(-191 -140.917)" fill="#fff"/><path d="M777.231,499a13.82,13.82,0,0,1-10.857,7.354c-1.168.115-.835,1.906.325,1.792a15.486,15.486,0,0,0,12.029-8.109.941.941,0,0,0-.23-1.267.915.915,0,0,0-1.267.23Z" transform="translate(-191 -140.917)" fill="#fff"/><path d="M524.258,681.083c-11.2,0-21.457-1.073-29.605-3.611-9.685-3.016-15.766-7.893-18.077-14.506a17.079,17.079,0,0,1,2.677-16.933c14.327-18.669,64.046-23.935,70.717-24.557L563.5,595.85c.866-6.115-3.231-10.743,3.847-10.859l83.735-1.137c6.952-.146,4.979,4.159,6.169,10.121l12.758,22.774-54.906,23.173,8.3,20.228-.542.315C606.8,669.786,560.585,681.081,524.258,681.083Z" transform="translate(-191 -140.917)" fill="#2f2e41"/><path d="M662.413,617.72s76.68-8.775,71.679,26.326-63.345,59.964-151.694,0l10-17.55s32.923-1.638,52.926-10.413Z" transform="translate(-191 -140.917)" fill="#2f2e41"/><path d="M553.854,458.7s-14.574-2.65-18.549,19.874-10.342,75.876-10.342,75.876l-19.769,68.534a13.912,13.912,0,1,0,19.815,8.184l26.452-72.738L556.5,495.8V462.988a4.794,4.794,0,0,0-2.65-4.288Z" transform="translate(-191 -140.917)" fill="#feb8b8"/><path d="M656.438,458.7s14.574-2.65,18.549,19.874,10.342,75.876,10.342,75.876L705.1,622.984a13.912,13.912,0,1,1-19.815,8.184L658.83,558.43,653.788,495.8V462.988a4.794,4.794,0,0,1,2.65-4.288Z" transform="translate(-191 -140.917)" fill="#feb8b8"/><path d="M655.327,440.083l-27.567-10.31-53.433-.69-23,11,6.46,37.126s-13.043,22.085,1.318,44.172l3.222,78.7s51.516,29.873,95-6L647.5,520.909s16.439-33.95,3.7-46.563Z" transform="translate(-191 -140.917)" fill="#ff5179"/><path d="M644.1,451.62l11.228-11.537s24.5,12.889,24,56l-30.911-9.526Z" transform="translate(-191 -140.917)" fill="#ff5179"/><path d="M563.8,451.62l-11.929-11.929s-21.049,16.282-20.544,59.392l28.157-12.526Z" transform="translate(-191 -140.917)" fill="#ff5179"/><path d="M641.564,651.325s-8.586-18.067-22.927-9.406-40.725,23.046-40.725,23.046-6.171,10.315,7.3,7.6,56.765-4.83,56.765-4.83Z" transform="translate(-191 -140.917)" fill="#feb8b8"/><path d="M617.708,328.366c.121-.117.248-.221.368-.341,7.673-7.673,9.228-18.559,3.473-24.314-5.438-5.439-15.456-4.341-23.017,2.271-6.483-6.172-15.176-7.893-20.8-3.632-6.488,4.913-6.438,15.909.113,24.561.449.592.919,1.152,1.4,1.691a45.307,45.307,0,0,0-29.733,42.546v43.12a9.629,9.629,0,0,0,9.629,9.628h79.7a9.306,9.306,0,0,0,9.305-9.305V371.149a45.3,45.3,0,0,0-30.427-42.781Z" transform="translate(-191 -140.917)" fill="#2f2e41"/><circle cx="37.818" cy="37.818" r="37.818" transform="translate(355.606 240.86) rotate(-45)" fill="#ffb6b6"/><path d="M560.348,357.991a51.435,51.435,0,0,0,29.395,9.084,31.52,31.52,0,0,1-12.493,5.14,103.716,103.716,0,0,0,42.365.238,27.42,27.42,0,0,0,8.869-3.046,11.223,11.223,0,0,0,5.474-7.321c.93-5.31-3.208-10.134-7.508-13.385a55.381,55.381,0,0,0-46.538-9.3c-5.2,1.344-10.406,3.614-13.783,7.789s-4.377,10.611-1.16,14.91Z" transform="translate(-191 -140.917)" fill="#2f2e41"/><path d="M200.519,165.172Z" fill="#f2f2f2"/><path d="M358.07,282.524l1.192-1.607,31.749,23.55c-1.725-5.259-7.833-21.929-17.844-28.58-11.96-7.946-20.375-5.474-24.959,1.426s-3.6,15.615,8.358,23.562c10.138,6.736,28.2,5.8,33.468,5.358Z" transform="translate(-191 -140.917)" fill="#f2f2f2"/><path d="M617.85,43.489Z" fill="#f2f2f2"/><path d="M835.767,153.589l1.474,1.352-26.724,29.127c5.41-1.169,22.625-5.509,30.281-14.775,9.147-11.069,7.564-19.695,1.178-24.972s-15.156-5.207-24.3,5.862c-7.754,9.383-8.7,27.443-8.81,32.729Z" transform="translate(-191 -140.917)" fill="#f2f2f2"/><path d="M186.85,354.489Z" fill="#f2f2f2"/><path d="M404.767,464.589l1.474,1.352-26.724,29.127c5.41-1.169,22.625-5.509,30.281-14.775,9.147-11.069,7.564-19.7,1.178-24.972s-15.156-5.207-24.3,5.862c-7.754,9.383-8.7,27.443-8.81,32.729Z" transform="translate(-191 -140.917)" fill="#f2f2f2"/><path d="M420.124,81.956Z" fill="#f2f2f2"/><path d="M630.744,186.967l1.731,1-19.8,34.215c5.029-2.311,20.9-10.269,26.372-20.97,6.539-12.784,3.128-20.864-4.247-24.637s-15.923-1.809-22.462,10.975c-5.543,10.837-2.564,28.674-1.528,33.86Z" transform="translate(-191 -140.917)" fill="#f2f2f2"/><path d="M605.124,295.956Z" fill="#f2f2f2"/><path d="M815.744,400.967l1.731,1-19.8,34.215c5.029-2.311,20.9-10.269,26.372-20.97,6.539-12.784,3.128-20.864-4.247-24.637s-15.923-1.809-22.462,10.975c-5.543,10.837-2.564,28.674-1.528,33.86Z" transform="translate(-191 -140.917)" fill="#f2f2f2"/></g></svg>